<?xml version="1.0" encoding="UTF-8"?>
<svg width="104px" height="18px" viewBox="0 0 104 18" version="1.1" xmlns="http://www.w3.org/2000/svg" xmlns:xlink="http://www.w3.org/1999/xlink">
    <title>Group 2</title>
    <g id="메시지-리스트-확인" stroke="none" stroke-width="1" fill="none" fill-rule="evenodd">
        <g id="6.0-Conversation-view_unsaved-Copy-6" transform="translate(-77.000000, -152.000000)" fill="#0381FE">
            <g id="Group-2" transform="translate(77.500000, 152.000000)">
                <g id="messages/icon/safe/orc_ic_safe">
                    <path d="M3.57701205,4.40451784 L9,2.37190362 L14.4229879,4.40451784 L14.4229879,8.11623373 C14.4229879,11.5495877 12.1091798,14.8486322 9,15.6280964 C5.89082024,14.8486322 3.57701205,11.5495877 3.57701205,8.11623373 L3.57701205,4.40451784 Z M12.6536477,7.66101005 C12.9124448,7.40216481 12.9124448,6.98249785 12.6536477,6.72365863 C12.3947905,6.46481339 11.9751114,6.46481339 11.7162542,6.72365863 L8.0531463,10.3867785 L6.45591969,8.78952781 C6.19708048,8.53073078 5.77740749,8.53073078 5.51856828,8.78952781 C5.25972304,9.0483851 5.25972304,9.46806412 5.51856828,9.72692141 L7.58446758,11.7928388 C7.70876849,11.9170855 7.87738124,11.9869215 8.0531463,11.9869215 C8.22891137,11.9869215 8.39750604,11.9170855 8.52181297,11.7928388 L12.6536477,7.66101005 Z" id="Shape"></path>
                </g>
                <text id="확인된-발신번호" font-family="And_K2_SamsungKoreanR_v2.0_RobotoR" font-size="13" font-weight="normal" line-spacing="13">
                    <tspan x="18" y="14.5">확인된 발신번호</tspan>
                </text>
            </g>
        </g>
    </g>
</svg>