<svg width="50" height="23" viewBox="0 0 50 23" fill="none" xmlns="http://www.w3.org/2000/svg">
<rect width="50" height="23" rx="11.5" fill="#1A8DFF"/>
<path d="M34.72 15.52C33.98 15.52 33.44 15.31 33.11 14.89C32.79 14.47 32.7 13.92 32.84 13.24C32.98 12.56 33.36 12.02 33.97 11.62C34.59 11.21 35.43 11.01 36.48 11.01H37.44L37.55 10.48C37.68 9.84001 37.33 9.52001 36.49 9.52001C35.65 9.52001 34.85 9.75001 34.05 10.21L34.46 8.24001C35.13 7.90001 36.02 7.73001 37.12 7.73001C38.22 7.73001 39 7.97001 39.43 8.44001C39.86 8.90001 39.98 9.62001 39.78 10.6L38.77 15.47H36.62L36.81 14.54C36.36 15.19 35.66 15.52 34.72 15.52ZM35.85 13.97C36.16 13.97 36.42 13.87 36.63 13.69C36.84 13.5 36.98 13.24 37.05 12.91L37.16 12.35H36.46C36.09 12.35 35.79 12.43 35.56 12.59C35.33 12.75 35.18 12.95 35.13 13.2C35.02 13.71 35.27 13.96 35.86 13.96L35.85 13.97Z" fill="white"/>
<path d="M29.89 15.55C28.16 15.55 27.47 14.69 27.83 12.95L28.55 9.47001H27.46L27.79 7.86001H28.88L29.25 6.06001H31.44L31.07 7.86001H32.84L32.51 9.47001H30.74L30.02 12.97C29.96 13.24 30 13.44 30.12 13.59C30.25 13.73 30.48 13.8 30.8 13.8C31.12 13.8 31.47 13.7 31.82 13.5L31.44 15.31C31.04 15.47 30.52 15.55 29.89 15.55Z" fill="white"/>
<path d="M23.43 9.46001C23.08 9.46001 22.74 9.59001 22.42 9.85001C22.1 10.1 21.84 10.47 21.65 10.97H24.29L24.33 10.79C24.44 9.90001 24.15 9.45001 23.44 9.45001L23.43 9.46001ZM25.02 15.04C24.43 15.38 23.55 15.55 22.39 15.55C21.23 15.55 20.37 15.19 19.82 14.47C19.28 13.74 19.13 12.79 19.37 11.62C19.61 10.45 20.14 9.51001 20.95 8.83001C21.77 8.14001 22.68 7.80001 23.68 7.80001C24.68 7.80001 25.43 8.10001 25.89 8.70001C26.36 9.29001 26.47 10.17 26.23 11.35C26.18 11.58 26.06 11.98 25.87 12.53H21.4C21.46 12.95 21.66 13.27 21.98 13.5C22.3 13.73 22.72 13.85 23.24 13.85C24.01 13.85 24.72 13.63 25.38 13.21L25 15.04H25.02Z" fill="white"/>
<path d="M9 19.07L11.38 7.56001C11.55 6.75001 11.83 6.09001 12.23 5.57001C12.64 5.04001 13.14 4.65001 13.73 4.40001C14.33 4.14001 15.01 4.01001 15.75 4.01001C16.49 4.01001 17.06 4.12001 17.53 4.34001C18 4.55001 18.32 4.87001 18.5 5.30001C18.69 5.72001 18.72 6.25001 18.59 6.89001C18.49 7.37001 18.32 7.78001 18.08 8.13001C17.85 8.48001 17.56 8.76001 17.22 8.97001C16.89 9.18001 16.51 9.32001 16.08 9.40001V9.45001C16.58 9.52001 17 9.67001 17.33 9.88001C17.67 10.1 17.91 10.41 18.04 10.81C18.18 11.2 18.19 11.7 18.06 12.31C17.92 13.01 17.63 13.61 17.21 14.11C16.8 14.6 16.3 14.97 15.72 15.23C15.15 15.49 14.54 15.62 13.9 15.62C13.58 15.62 13.32 15.6 13.12 15.56C12.92 15.53 12.73 15.48 12.57 15.41C12.41 15.34 12.25 15.26 12.07 15.16L11.26 19.07H9ZM13.83 13.83C14.33 13.83 14.75 13.68 15.09 13.38C15.43 13.07 15.66 12.65 15.77 12.11C15.85 11.7 15.84 11.37 15.72 11.12C15.61 10.86 15.45 10.67 15.22 10.56C14.99 10.44 14.75 10.38 14.48 10.38H13.81L14.16 8.70001H14.7C14.97 8.70001 15.21 8.64001 15.43 8.51001C15.65 8.37001 15.83 8.19001 15.98 7.95001C16.13 7.71001 16.24 7.44001 16.3 7.14001C16.4 6.67001 16.35 6.32001 16.16 6.09001C15.97 5.85001 15.71 5.73001 15.38 5.73001C15.1 5.73001 14.84 5.79001 14.61 5.91001C14.38 6.03001 14.17 6.23001 14.01 6.50001C13.85 6.76001 13.72 7.12001 13.62 7.57001L12.43 13.33C12.65 13.49 12.87 13.61 13.09 13.7C13.31 13.79 13.56 13.84 13.84 13.84L13.83 13.83Z" fill="white"/>
</svg>
