<?xml version="1.0" encoding="utf-8"?>
<!-- Generator: Adobe Illustrator 27.8.1, SVG Export Plug-In . SVG Version: 6.00 Build 0)  -->
<svg version="1.1" id="Layer_1" xmlns="http://www.w3.org/2000/svg" xmlns:xlink="http://www.w3.org/1999/xlink" x="0px" y="0px"
	 viewBox="0 0 595.28 841.89" style="enable-background:new 0 0 595.28 841.89;" xml:space="preserve">
<g>
	<path d="M-291.37,243L-229,394.2h2.52l61.74-151.2h57.33v223.02h-45.36V319.86h-1.89l-57.96,144.9h-30.87l-57.96-144.9h-1.89
		v146.16h-44.73V243H-291.37z"/>
	<path d="M-79.38,383.49c0.32-51.66,32.13-86.63,81.27-86.94c43.47,0.31,78.12,28.04,78.12,85.05v12.6H-34.02
		c0,25.2,14.81,40.95,38.43,40.95c15.43,0,26.46-6.93,30.87-16.38h43.47c-6.61,30.56-34.02,50.4-74.97,50.4
		C-47.88,469.17-79.07,436.1-79.38,383.49z M37.17,365.85c-0.31-20.48-14.49-34.97-34.65-35.28c-21.42,0.31-35.91,16.07-36.54,35.28
		H37.17z"/>
	<path d="M175.45,329.31c-14.8,0-25.83,6.93-25.83,17.01c0,7.56,5.99,13.55,21.42,17.01l30.24,5.67
		c32.13,6.93,47.88,21.42,47.88,45.36c0,32.76-29.3,54.81-73.71,54.81c-45.36,0-71.82-20.16-75.6-52.92h45.99
		c2.21,13.23,12.6,20.16,29.61,20.16c16.38,0,27.41-6.62,27.72-17.64c-0.32-8.5-7.25-13.86-22.68-17.01l-27.72-5.67
		c-32.13-5.98-48.51-22.68-48.51-47.25c0-32.13,27.72-51.98,70.56-52.29c42.53,0.31,68.36,20.16,70.56,52.29h-42.21
		C200.97,336.87,190.89,329.31,175.45,329.31z"/>
	<path d="M343.97,329.31c-14.8,0-25.83,6.93-25.83,17.01c0,7.56,5.99,13.55,21.42,17.01L369.8,369
		c32.13,6.93,47.88,21.42,47.88,45.36c0,32.76-29.3,54.81-73.71,54.81c-45.36,0-71.82-20.16-75.6-52.92h45.99
		c2.21,13.23,12.6,20.16,29.61,20.16c16.38,0,27.41-6.62,27.72-17.64c-0.32-8.5-7.25-13.86-22.68-17.01l-27.72-5.67
		c-32.13-5.98-48.51-22.68-48.51-47.25c0-32.13,27.72-51.98,70.56-52.29c42.53,0.31,68.36,20.16,70.56,52.29H371.7
		C369.49,336.87,359.41,329.31,343.97,329.31z"/>
	<path d="M498.64,367.74l41.58-1.89v-13.23c0-14.49-9.77-22.37-26.46-22.68c-15.75,0.31-25.51,7.25-27.72,18.9h-43.47
		c2.52-29.3,28.04-51.98,72.45-52.29c36.23,0.31,70.56,16.69,70.56,56.7v112.77h-42.84v-23.31h-1.89
		c-7.88,15.75-23.63,26.46-48.51,26.46c-31.82,0-55.44-16.69-55.44-49.77C436.9,381.92,466.82,369.95,498.64,367.74z M504.94,437.67
		c21.11,0,35.6-13.86,35.28-31.5V394.2c-6.93,0.31-26.46,1.26-34.02,1.89c-15.75,1.58-25.83,9.14-25.83,22.05
		C480.37,430.74,490.76,437.67,504.94,437.67z"/>
	<path d="M617.39,479.88h44.73c2.52,13.23,15.12,19.21,33.39,19.53c21.1-0.31,35.28-9.13,35.28-32.13v-30.87h-1.89
		c-6.3,13.54-21.1,27.09-47.88,27.09c-37.8,0-68.04-26.46-68.04-81.9c0-56.7,31.19-84.74,68.04-85.05
		c28.04,0.31,41.58,17.01,47.88,30.24h1.89v-27.72h44.73v168.84c0,42.53-33.39,64.26-81.27,64.26
		C648.58,532.17,619.91,511.38,617.39,479.88z M695.51,429.48c22.37,0,35.28-17.96,35.28-47.25c0-29.93-12.6-49.14-35.28-49.14
		c-23.63,0-35.91,20.16-35.91,49.14C659.6,410.9,672.2,429.48,695.51,429.48z"/>
	<path d="M802.92,383.49c0.32-51.66,32.13-86.63,81.27-86.94c43.47,0.31,78.12,28.04,78.12,85.05v12.6H848.28
		c0,25.2,14.81,40.95,38.43,40.95c15.43,0,26.46-6.93,30.87-16.38h43.47c-6.61,30.56-34.02,50.4-74.97,50.4
		C834.42,469.17,803.24,436.1,802.92,383.49z M919.47,365.85c-0.31-20.48-14.49-34.97-34.65-35.28
		c-21.42,0.31-35.91,16.07-36.54,35.28H919.47z"/>
	<path d="M1053.66,243h182.07v38.43h-68.04v184.59h-45.99V281.43h-68.04V243z"/>
	<path d="M1247.07,527.76v-35.28c5.99,0.32,12.92,0.63,18.27,0.63c9.45,0,16.7-0.95,22.05-15.12l2.52-7.56l-59.85-171.36h47.88
		l35.28,122.85h1.89l35.28-122.85h47.88l-64.89,185.22c-9.76,27.09-27.72,44.42-63,44.1
		C1261.25,528.71,1253.06,528.39,1247.07,527.76z"/>
	<path d="M1419.38,299.07h44.73v27.72h2.52c5.99-13.23,19.21-29.93,47.25-30.24c37.17,0.31,68.04,28.98,68.04,86.31
		c0,55.76-29.61,86-68.04,85.68c-27.09,0.32-40.95-15.43-47.25-28.98h-1.89v88.83h-45.36V299.07z M1499.38,432.63
		c23.31-0.31,35.91-20.79,35.91-50.4c0-28.98-12.28-49.14-35.91-49.14c-22.68,0-35.28,19.22-35.28,49.14
		C1464.1,412.47,1477.02,432.32,1499.38,432.63z"/>
	<path d="M1603.01,383.49c0.32-51.66,32.13-86.63,81.27-86.94c43.47,0.31,78.12,28.04,78.12,85.05v12.6h-114.03
		c0,25.2,14.81,40.95,38.43,40.95c15.43,0,26.46-6.93,30.87-16.38h43.47c-6.62,30.56-34.02,50.4-74.97,50.4
		C1634.51,469.17,1603.33,436.1,1603.01,383.49z M1719.57,365.85c-0.31-20.48-14.49-34.97-34.65-35.28
		c-21.42,0.31-35.91,16.07-36.54,35.28H1719.57z"/>
</g>
</svg>
