<svg width="2018" height="290" viewBox="0 0 2018 290" fill="none" xmlns="http://www.w3.org/2000/svg">
<path d="M0 0V223.02H44.73V76.86H46.62L104.58 221.76H135.45L193.41 76.86H195.3V223.02H240.66V0H183.33L121.59 151.2H119.07L56.7 0H0Z" fill="white"/>
<path d="M343.298 226.17C384.248 226.17 411.653 206.325 418.268 175.77H374.798C370.388 185.22 359.363 192.15 343.928 192.15C320.303 192.15 305.498 176.4 305.498 151.2H419.528V138.6C419.528 81.585 384.878 53.865 341.408 53.55C292.268 53.865 260.453 88.83 260.138 140.49C260.453 193.095 291.638 226.17 343.298 226.17ZM305.498 122.85C306.128 103.635 320.618 87.885 342.038 87.57C362.198 87.885 376.373 102.375 376.688 122.85H305.498Z" fill="white"/>
<path d="M534.257 105.84H576.467C574.262 73.71 548.432 53.865 505.907 53.55C463.067 53.865 435.347 73.71 435.347 105.84C435.347 130.41 451.727 147.105 483.857 153.09L511.577 158.76C527.012 161.91 533.942 167.265 534.257 175.77C533.942 186.795 522.917 193.41 506.537 193.41C489.527 193.41 479.132 186.48 476.927 173.25H430.937C434.717 206.01 461.177 226.17 506.537 226.17C550.952 226.17 580.247 204.12 580.247 171.36C580.247 147.42 564.497 132.93 532.367 126L502.127 120.33C486.692 116.865 480.707 110.88 480.707 103.32C480.707 93.24 491.732 86.31 506.537 86.31C521.972 86.31 532.052 93.87 534.257 105.84Z" fill="white"/>
<path d="M694.304 105.84H736.514C734.309 73.71 708.479 53.865 665.954 53.55C623.114 53.865 595.394 73.71 595.394 105.84C595.394 130.41 611.774 147.105 643.904 153.09L671.624 158.76C687.059 161.91 693.989 167.265 694.304 175.77C693.989 186.795 682.964 193.41 666.584 193.41C649.574 193.41 639.179 186.48 636.974 173.25H590.984C594.764 206.01 621.224 226.17 666.584 226.17C710.999 226.17 740.294 204.12 740.294 171.36C740.294 147.42 724.544 132.93 692.414 126L662.174 120.33C646.739 116.865 640.754 110.88 640.754 103.32C640.754 93.24 651.779 86.31 666.584 86.31C682.019 86.31 692.099 93.87 694.304 105.84Z" fill="white"/>
<path d="M751.031 176.4C751.031 209.475 774.656 226.17 806.471 226.17C831.356 226.17 847.106 215.46 854.981 199.71H856.871V223.02H899.711V110.25C899.711 70.245 865.376 53.865 829.151 53.55C784.736 53.865 759.221 76.545 756.701 105.84H800.171C802.376 94.185 812.141 87.255 827.891 86.94C844.586 87.255 854.351 95.13 854.351 109.62V122.85L812.771 124.74C780.956 126.945 751.031 138.915 751.031 176.4ZM794.501 175.14C794.501 162.225 804.581 154.665 820.331 153.09C827.891 152.46 847.421 151.515 854.351 151.2V163.17C854.666 180.81 840.176 194.67 819.071 194.67C804.896 194.67 794.501 187.74 794.501 175.14Z" fill="white"/>
<path d="M999.761 289.17C1047.64 289.17 1081.03 267.435 1081.03 224.91V56.07H1036.3V83.79H1034.41C1028.11 70.56 1014.57 53.865 986.531 53.55C949.676 53.865 918.491 81.9 918.491 138.6C918.491 194.04 948.731 220.5 986.531 220.5C1013.31 220.5 1028.11 206.955 1034.41 193.41H1036.3V224.28C1036.3 247.275 1022.13 256.095 1001.02 256.41C982.751 256.095 970.151 250.11 967.631 236.88H922.901C925.421 268.38 954.086 289.17 999.761 289.17ZM965.111 139.23C965.111 110.25 977.396 90.09 1001.02 90.09C1023.7 90.09 1036.3 109.305 1036.3 139.23C1036.3 168.525 1023.39 186.48 1001.02 186.48C977.711 186.48 965.111 167.895 965.111 139.23Z" fill="white"/>
<path d="M1183.22 226.17C1224.17 226.17 1251.57 206.325 1258.19 175.77H1214.72C1210.31 185.22 1199.28 192.15 1183.85 192.15C1160.22 192.15 1145.42 176.4 1145.42 151.2H1259.45V138.6C1259.45 81.585 1224.8 53.865 1181.33 53.55C1132.19 53.865 1100.37 88.83 1100.06 140.49C1100.37 193.095 1131.56 226.17 1183.22 226.17ZM1145.42 122.85C1146.05 103.635 1160.54 87.885 1181.96 87.57C1202.12 87.885 1216.29 102.375 1216.61 122.85H1145.42Z" fill="white"/>
<path d="M1334 38.43H1402.04V223.02H1448.03V38.43H1516.07V0H1334V38.43Z" fill="white"/>
<path d="M1542.23 285.39C1577.52 285.705 1595.47 268.38 1605.23 241.29L1670.12 56.07H1622.24L1586.96 178.92H1585.08L1549.8 56.07H1501.92L1561.77 227.43L1559.24 234.99C1553.89 249.165 1546.64 250.11 1537.19 250.11C1531.84 250.11 1524.91 249.795 1518.93 249.48V284.76C1524.91 285.39 1533.1 285.705 1542.23 285.39Z" fill="white"/>
<path d="M1682.57 285.39H1727.93V196.56H1729.82C1736.12 210.105 1749.98 225.855 1777.07 225.54C1815.51 225.855 1845.11 195.615 1845.11 139.86C1845.11 82.53 1814.24 53.865 1777.07 53.55C1749.04 53.865 1735.81 70.56 1729.82 83.79H1727.3V56.07H1682.57V285.39ZM1727.3 139.23C1727.3 109.305 1739.9 90.09 1762.58 90.09C1786.21 90.09 1798.49 110.25 1798.49 139.23C1798.49 168.84 1785.9 189.315 1762.58 189.63C1740.22 189.315 1727.3 169.47 1727.3 139.23Z" fill="white"/>
<path d="M1941 226.17C1981.95 226.17 2009.36 206.325 2015.97 175.77H1972.5C1968.09 185.22 1957.07 192.15 1941.63 192.15C1918.01 192.15 1903.2 176.4 1903.2 151.2H2017.23V138.6C2017.23 81.585 1982.58 53.865 1939.11 53.55C1889.97 53.865 1858.16 88.83 1857.84 140.49C1858.16 193.095 1889.34 226.17 1941 226.17ZM1903.2 122.85C1903.83 103.635 1918.32 87.885 1939.74 87.57C1959.9 87.885 1974.08 102.375 1974.39 122.85H1903.2Z" fill="white"/>
</svg>
