<svg width="48" height="48" viewBox="0 0 48 48" fill="none" xmlns="http://www.w3.org/2000/svg">
<rect width="48" height="48" rx="12" fill="white"/>
<rect width="48" height="48" rx="12" fill="white"/>
<rect width="48" height="48" rx="12" fill="white"/>
<rect width="48" height="48" rx="12" fill="white"/>
<rect width="48" height="48" rx="12" fill="white"/>
<path d="M34.6532 17.3706V13H31.4148V17.3706H27.1357V20.4536H31.4148V24.7735H34.6532V20.4536H38.9614V17.3706H34.6532Z" fill="#DD097D"/>
<path d="M20.4222 17.3906V27.4132C20.4222 30.1886 19.0411 31.5461 16.7053 31.5461C14.3695 31.5461 12.9884 30.1837 12.9884 27.4132V17.3906H9.04004V27.4748C9.04004 32.9458 11.9622 34.9995 16.5635 34.9995H16.8458C21.4496 34.9995 24.3706 32.9482 24.3706 27.4748V17.3918L20.4222 17.3906Z" fill="#DD097D"/>
</svg>
