<svg width="48" height="48" viewBox="0 0 48 48" fill="none" xmlns="http://www.w3.org/2000/svg">
<rect width="48" height="48" rx="12" fill="white"/>
<rect width="48" height="48" rx="12" fill="white"/>
<rect width="48" height="48" rx="12" fill="white"/>
<rect width="48" height="48" rx="12" fill="white"/>
<rect width="48" height="48" rx="12" fill="white"/>
<g clip-path="url(#clip0_4275_41914)">
<path d="M18.8227 26.2503L25.4103 18.1441H21.8189C20.2059 18.1441 19.1018 18.6366 18.1209 19.7817L14.6527 24.0462V12.3281H11.1721C10.3553 12.3281 9.69043 12.993 9.69043 13.8139V35.6781H13.171C13.9918 35.6781 14.6527 35.0132 14.6527 34.1923V28.3763L17.4724 31.8363L19.8693 34.7874C20.3537 35.3949 20.9899 35.674 21.6424 35.674H26.498L23.3581 31.8199L18.8227 26.2462V26.2503ZM34.046 31.5531C33.3154 31.5531 32.7161 30.9539 32.7161 30.2192V12.3281H29.2356C28.4188 12.3281 27.7498 12.993 27.7498 13.8098V31.1509C27.7498 33.8311 29.6009 35.6781 32.2811 35.6781H36.1064C36.9272 35.6781 37.5922 35.0132 37.5922 34.1923V31.549H34.046V31.5531Z" fill="#221E1F"/>
<path d="M15.1242 23.4473L15.1324 23.4391C15.1324 23.4391 15.1283 23.4432 15.1201 23.4473H15.1242ZM38.3059 20.1433V16.8516L37.9981 17.1758C37.9857 17.1799 37.054 18.1321 34.378 18.1321H21.7241C19.7253 18.1321 18.7812 18.9448 18.0671 19.8273L17.6772 20.3075C17.6772 20.3075 17.6525 20.3362 17.6402 20.3485L15.1283 23.4391C16.0436 22.7496 17.2913 22.335 18.5678 22.335H34.3739C36.2906 22.335 38.1335 21.7727 38.2854 20.3362C38.3059 20.2172 38.3018 20.1433 38.3018 20.1433H38.3059Z" fill="#ED1B23"/>
</g>
<defs>
<clipPath id="clip0_4275_41914">
<rect width="28.62" height="23.3499" fill="white" transform="translate(9.69043 12.3281)"/>
</clipPath>
</defs>
</svg>
