<svg width="160" height="48" viewBox="0 0 160 48" fill="none" xmlns="http://www.w3.org/2000/svg">
<g filter="url(#filter0_d_1_104)">
<path d="M150 2H11.592C9.38283 2 7.59197 3.79086 7.59197 6V11L2 16.5L7.59197 21.5V38C7.59197 40.2091 9.38283 42 11.592 42H150C152.209 42 154 40.2091 154 38V6C154 3.79086 152.209 2 150 2Z" fill="white"/>
<path d="M7.94258 11.3565L8.09197 11.2095V11V6C8.09197 4.067 9.65898 2.5 11.592 2.5H150C151.933 2.5 153.5 4.067 153.5 6V38C153.5 39.933 151.933 41.5 150 41.5H11.592C9.65897 41.5 8.09197 39.933 8.09197 38V21.5V21.2763L7.92525 21.1273L2.73071 16.4826L7.94258 11.3565Z" stroke="black"/>
</g>
<path d="M138 23L141.5 26.5L138 30" stroke="black"/>
<path d="M47.1456 18V11.4545H51.4027V12.4485H48.3313V14.2255H51.1822V15.2195H48.3313V17.006H51.4283V18H47.1456ZM53.4881 11.4545L55.1916 16.6065H55.2587L56.959 11.4545H58.263L55.9554 18H54.4917L52.1873 11.4545H53.4881ZM59.1251 18V11.4545H63.3822V12.4485H60.3108V14.2255H63.1617V15.2195H60.3108V17.006H63.4078V18H59.1251ZM69.9708 11.4545V18H68.9161L65.8319 13.5415H65.7776V18H64.5919V11.4545H65.653L68.7339 15.9162H68.7915V11.4545H69.9708ZM70.9751 12.4485V11.4545H76.1974V12.4485H74.1744V18H72.9982V12.4485H70.9751Z" fill="#1E1E1E"/>
<path d="M53.266 21.903V31.869H54.179V21.903H53.266ZM48.932 22.673C47.469 22.673 46.413 24.026 46.413 26.138C46.413 28.261 47.469 29.614 48.932 29.614C50.406 29.614 51.462 28.261 51.462 26.138C51.462 24.026 50.406 22.673 48.932 22.673ZM48.932 23.498C49.911 23.498 50.582 24.532 50.582 26.138C50.582 27.755 49.911 28.811 48.932 28.811C47.964 28.811 47.282 27.755 47.282 26.138C47.282 24.532 47.964 23.498 48.932 23.498ZM56.7301 22.882V29.361H61.3061V22.882H56.7301ZM60.4151 23.619V28.624H57.6211V23.619H60.4151ZM63.3851 21.903V31.869H64.2981V21.903H63.3851ZM68.9173 23.333V24.95C68.9173 26.666 67.7183 28.536 66.2773 29.218L66.8053 29.944C68.3893 29.163 69.6543 27.051 69.6543 24.95V23.333H68.9173ZM69.0933 23.333V24.95C69.0933 27.018 70.3693 28.954 71.9753 29.702L72.4923 28.976C71.0293 28.349 69.8303 26.633 69.8303 24.95V23.333H69.0933ZM66.6073 22.926V23.696H72.1623V22.926H66.6073ZM73.5043 21.914V31.858H74.4173V21.914H73.5043ZM82.2996 26.534V28.404H83.2016V26.534H82.2996ZM80.8696 28.118V31.726H87.4036V28.118H86.5016V29.185H81.7826V28.118H80.8696ZM81.7826 29.9H86.5016V30.989H81.7826V29.9ZM86.4906 21.914V27.623H87.4036V21.914H86.4906ZM79.4506 27.018C81.2656 27.018 83.6746 27.007 85.8966 26.633L85.8306 25.973C83.6636 26.259 81.1886 26.27 79.3296 26.27L79.4506 27.018ZM82.1786 22.156V22.651C82.1786 23.696 81.2106 24.598 79.7586 24.95L80.1656 25.643C81.8266 25.225 82.9156 24.092 82.9156 22.651V22.156H82.1786ZM82.3766 22.156V22.651C82.3766 24.048 83.4876 25.115 85.1376 25.5L85.5226 24.796C84.1036 24.499 83.1246 23.663 83.1246 22.651V22.156H82.3766ZM97.0057 21.914V31.858H97.8857V21.914H97.0057ZM92.6937 25.973V26.71H95.2017V25.973H92.6937ZM94.9377 22.167V31.352H95.7957V22.167H94.9377ZM92.8147 23.168V23.333C92.8147 25.676 91.7697 27.656 89.4267 29.064L89.9657 29.713C92.6497 28.118 93.6947 25.775 93.6947 23.168H92.8147ZM89.8667 23.168V23.916H93.1557V23.168H89.8667ZM102.875 22.805V27.414H107.44V22.805H102.875ZM106.549 23.542V26.677H103.766V23.542H106.549ZM109.266 21.903V29.196H110.179V21.903H109.266ZM109.893 24.939V25.698H111.653V24.939H109.893ZM103.986 30.89V31.638H110.63V30.89H103.986ZM103.986 28.503V31.209H104.899V28.503H103.986ZM112.587 26.061V26.809H121.574V26.061H112.587ZM113.775 24.521V25.258H120.507V24.521H113.775ZM113.775 22.233V25.115H114.677V22.981H120.397V22.233H113.775ZM113.665 27.667V28.382H119.517V29.328H113.687V31.264H114.589V30.01H120.419V27.667H113.665ZM113.687 31.022V31.748H120.716V31.022H113.687ZM129.944 21.914V31.858H130.857V21.914H129.944ZM127.029 22.981V23.135C127.029 25.775 125.698 27.887 122.827 29.273L123.311 30.01C126.633 28.382 127.931 25.863 127.931 22.981H127.029ZM123.278 22.981V23.729H127.425V22.981H123.278Z" fill="black"/>
<rect x="17.5" y="12.5" width="13" height="13" stroke="black"/>
<circle cx="17.725" cy="12.725" r="1.225" fill="white" stroke="black"/>
<circle cx="17.725" cy="25.375" r="1.225" fill="white" stroke="black"/>
<circle cx="30.725" cy="12.725" r="1.225" fill="white" stroke="black"/>
<circle cx="30.725" cy="25.375" r="1.225" fill="white" stroke="black"/>
<rect x="19" y="14" width="10" height="10" fill="#BECCEF" fill-opacity="0.5"/>
<rect x="22.5" y="16.5" width="13" height="13" fill="white" stroke="black"/>
<circle cx="22.725" cy="16.725" r="1.225" fill="white" stroke="black"/>
<circle cx="22.725" cy="29.375" r="1.225" fill="white" stroke="black"/>
<circle cx="35.725" cy="16.725" r="1.225" fill="white" stroke="black"/>
<circle cx="35.725" cy="29.375" r="1.225" fill="white" stroke="black"/>
<rect x="24" y="18" width="10" height="10" fill="#BECCEF"/>
<circle cx="26.5" cy="20.5" r="1.5" fill="white"/>
<path d="M23.5 26L26 23.75L29 26L33 23L34.5 24.5" stroke="white"/>
<defs>
<filter id="filter0_d_1_104" x="0" y="0" width="160" height="48" filterUnits="userSpaceOnUse" color-interpolation-filters="sRGB">
<feFlood flood-opacity="0" result="BackgroundImageFix"/>
<feColorMatrix in="SourceAlpha" type="matrix" values="0 0 0 0 0 0 0 0 0 0 0 0 0 0 0 0 0 0 127 0" result="hardAlpha"/>
<feOffset dx="2" dy="2"/>
<feGaussianBlur stdDeviation="2"/>
<feComposite in2="hardAlpha" operator="out"/>
<feColorMatrix type="matrix" values="0 0 0 0 0 0 0 0 0 0 0 0 0 0 0 0 0 0 0.2 0"/>
<feBlend mode="normal" in2="BackgroundImageFix" result="effect1_dropShadow_1_104"/>
<feBlend mode="normal" in="SourceGraphic" in2="effect1_dropShadow_1_104" result="shape"/>
</filter>
</defs>
</svg>
