<?xml version="1.0" encoding="utf-8"?>
<!-- Generator: Adobe Illustrator 26.3.1, SVG Export Plug-In . SVG Version: 6.00 Build 0)  -->
<svg version="1.1" id="레이어_1" xmlns="http://www.w3.org/2000/svg" xmlns:xlink="http://www.w3.org/1999/xlink" x="0px"
	 y="0px" viewBox="0 0 512 512" style="enable-background:new 0 0 512 512;" xml:space="preserve">
<style type="text/css">
	.st0{fill:#7F7F7F;}
</style>
<g>
	<path class="st0" d="M243.2,12.8C108.9,12.8,0,121.7,0,256s108.9,243.2,243.2,243.2S486.4,390.3,486.4,256S377.5,12.8,243.2,12.8z
		 M243.2,400c-18,0-32-14-32-32s13.1-32,32-32c17.1,0,32,14,32,32S260.3,400,243.2,400z M312.3,258l-45.1,28v2c0,13-11,24-24,24
		c-13,0-24-11-24-24v-16c0-8,4-16,12-21l57-34c7-4,11-11,11-19c0-12-10.9-22-22.9-22h-51.1c-12.9,0-22,10-22,22c0,13-11,24-24,24
		s-24-11-24-24c0-39,31-70,69.1-70h51.1c40.8,0,71.8,31,71.8,70C347.2,222,334.2,245,312.3,258z"/>
</g>
</svg>
