<svg width="40" height="59" viewBox="0 0 40 59" fill="none" xmlns="http://www.w3.org/2000/svg">
<rect x="0.6" y="0.6" width="38.8" height="57.8" rx="5.4" fill="#B4BCD9" stroke="#043A57" stroke-width="1.2"/>
<rect x="0.6" y="8.6" width="38.8" height="40.8" fill="white" stroke="#043A57" stroke-width="1.2"/>
<path fill-rule="evenodd" clip-rule="evenodd" d="M17.9544 29.5494L17.0129 28.6079L16.1192 27.7142C15.9608 27.5566 15.6613 27.1721 15.7306 26.8951C15.7468 26.5943 15.9392 26.37 16.1094 26.2566C16.807 26.0208 17.0745 25.5995 17.1211 25.4184C17.3643 24.8243 17.2698 24.2163 16.9783 23.6358C14.9743 20.7347 12.9671 20.6033 12.214 20.9002C11.4723 21.3034 11.0295 22.0483 10.8934 22.4885C9.1164 26.8843 12.5257 31.5997 15.0209 33.9791C17.4004 36.4743 22.1158 39.8835 26.5115 38.1065C26.9516 37.9705 27.6965 37.5276 28.0998 36.786C28.3967 36.0328 28.2653 34.0256 25.3642 32.0217C24.7837 31.7302 24.1756 31.6356 23.5816 31.8789C23.4004 31.9255 22.9792 32.193 22.7434 32.8906C22.6299 33.0608 22.4057 33.2532 22.1049 33.2694C21.8279 33.3387 21.4434 33.0392 21.2858 32.8808L20.392 31.987L17.9544 29.5494Z" fill="#FDA64D"/>
<path fill-rule="evenodd" clip-rule="evenodd" d="M16.1677 26.0898L15.2816 24.6128L13.7596 23.1761L12.2986 22.3116L11.1097 21.8615C11.3345 21.471 11.7034 21.0315 12.214 20.754C12.9671 20.457 14.9743 20.5884 16.9782 23.4896C17.2697 24.07 17.3643 24.6781 17.121 25.2721C17.0758 25.4481 16.8219 25.8508 16.1677 26.0898Z" fill="white"/>
<path fill-rule="evenodd" clip-rule="evenodd" d="M27.2584 37.5179L26.5064 35.9684L25.1175 34.4027L23.7387 33.4124L22.5943 32.8588C22.8527 32.4897 23.259 32.0846 23.7922 31.8533C24.5686 31.6241 26.5563 31.9326 28.2958 34.9996C28.5348 35.6035 28.5752 36.2176 28.2803 36.7878C28.2197 36.9591 27.9312 37.3377 27.2584 37.5179Z" fill="white"/>
<path d="M20.8643 24.5938C21.6111 24.26 22.5649 24.3897 23.29 24.9985C24.0151 25.6073 24.3078 26.5243 24.1084 27.3176" stroke="#063959" stroke-width="1.2" stroke-linecap="round"/>
<path d="M20.8643 24.5938C21.6111 24.26 22.5649 24.3897 23.29 24.9985C24.0151 25.6073 24.3078 26.5243 24.1084 27.3176" stroke="#063959" stroke-width="1.2" stroke-linecap="round"/>
<path d="M20.6178 22.4717C21.9123 21.8932 23.5656 22.118 24.8224 23.1733C26.0793 24.2286 26.5867 25.818 26.2409 27.1931" stroke="#063959" stroke-width="1.2" stroke-linecap="round"/>
<path d="M20.6178 22.4717C21.9123 21.8932 23.5656 22.118 24.8224 23.1733C26.0793 24.2286 26.5867 25.818 26.2409 27.1931" stroke="#063959" stroke-width="1.2" stroke-linecap="round"/>
<path d="M20.3654 20.635C22.1445 19.8399 24.4166 20.1489 26.144 21.5992C27.8714 23.0496 28.5688 25.234 28.0936 27.1239" stroke="#063959" stroke-width="1.2" stroke-linecap="round"/>
<path d="M11.4769 21.9587C12.64 22.2768 15.1926 23.4974 16.0992 25.8354" stroke="#063959" stroke-width="1.2" stroke-linecap="round" stroke-linejoin="round"/>
<path d="M17.9544 29.4031L17.5301 29.8274C17.6426 29.9399 17.7952 30.0031 17.9544 30.0031C18.1135 30.0031 18.2661 29.9399 18.3786 29.8274L17.9544 29.4031ZM16.1192 27.568L16.5435 27.1437L16.5424 27.1426L16.1192 27.568ZM15.7306 26.7488L16.3126 26.8944C16.3219 26.8573 16.3276 26.8194 16.3297 26.7811L15.7306 26.7488ZM16.1094 26.1103L15.9173 25.5419C15.8675 25.5587 15.8202 25.582 15.7766 25.6111L16.1094 26.1103ZM17.1211 25.2721L16.5658 25.0447C16.5554 25.0701 16.5468 25.0962 16.5399 25.1228L17.1211 25.2721ZM16.9783 23.4896L17.5144 23.2203C17.502 23.1954 17.4878 23.1715 17.4719 23.1486L16.9783 23.4896ZM12.214 20.754L11.9939 20.1958C11.9712 20.2048 11.9489 20.2151 11.9274 20.2268L12.214 20.754ZM10.8934 22.3422L11.4497 22.5671C11.456 22.5514 11.4617 22.5355 11.4667 22.5194L10.8934 22.3422ZM15.0211 33.8331L15.4553 33.419C15.4487 33.4121 15.442 33.4054 15.4352 33.3989L15.0211 33.8331ZM26.5115 37.9603L26.3343 37.387C26.3182 37.392 26.3023 37.3977 26.2866 37.404L26.5115 37.9603ZM28.0998 36.6397L28.6269 36.9263C28.6386 36.9048 28.649 36.8826 28.658 36.8598L28.0998 36.6397ZM25.3642 31.8754L25.7052 31.3818C25.6823 31.366 25.6583 31.3518 25.6335 31.3393L25.3642 31.8754ZM23.5816 31.7327L23.731 32.3138C23.7575 32.3069 23.7836 32.2983 23.809 32.2879L23.5816 31.7327ZM22.7434 32.7443L23.2426 33.0771C23.2718 33.0335 23.295 32.9862 23.3118 32.9364L22.7434 32.7443ZM22.1049 33.1231L22.0726 32.524C22.0344 32.5261 21.9964 32.5318 21.9593 32.5411L22.1049 33.1231ZM21.2858 32.7345L21.7111 32.3113L21.71 32.3102L21.2858 32.7345ZM17.9544 29.4031L18.3786 28.9789C18.2661 28.8663 18.1135 28.8031 17.9544 28.8031C17.7952 28.8031 17.6426 28.8663 17.5301 28.9789L17.9544 29.4031ZM18.3786 28.9789L17.4372 28.0374L16.5887 28.886L17.5301 29.8274L18.3786 28.9789ZM17.4372 28.0374L16.5435 27.1437L15.6949 27.9922L16.5887 28.886L17.4372 28.0374ZM16.5424 27.1426C16.4931 27.0936 16.4145 27 16.3604 26.9054C16.3339 26.8591 16.3227 26.8288 16.3192 26.8159C16.3153 26.8014 16.3277 26.8342 16.3126 26.8944L15.1485 26.6032C15.0542 26.9801 15.2176 27.3243 15.3186 27.501C15.4365 27.7072 15.5869 27.8847 15.696 27.9933L16.5424 27.1426ZM16.3297 26.7811C16.3312 26.7534 16.3406 26.7237 16.3625 26.6906C16.3863 26.6547 16.418 26.6257 16.4422 26.6095L15.7766 25.6111C15.5017 25.7944 15.1608 26.1714 15.1314 26.7165L16.3297 26.7811ZM16.3015 26.6787C17.1509 26.3916 17.5953 25.8371 17.7022 25.4215L16.5399 25.1228C16.5501 25.0834 16.5408 25.1424 16.4384 25.2432C16.3458 25.3343 16.1838 25.4518 15.9173 25.5419L16.3015 26.6787ZM17.6763 25.4995C18.0042 24.699 17.8583 23.905 17.5144 23.2203L16.4421 23.7588C16.6812 24.235 16.7245 24.6572 16.5658 25.0447L17.6763 25.4995ZM17.4719 23.1486C15.3744 20.112 13.0996 19.7598 11.9939 20.1958L12.4341 21.3121C12.8346 21.1542 14.5742 21.0649 16.4846 23.8306L17.4719 23.1486ZM11.9274 20.2268C11.02 20.7202 10.492 21.6091 10.3202 22.165L11.4667 22.5194C11.5669 22.1951 11.9247 21.5942 12.5006 21.2811L11.9274 20.2268ZM10.3372 22.1173C9.36445 24.5236 9.82804 26.983 10.8111 29.0968C11.7937 31.2097 13.3228 33.0426 14.607 34.2673L15.4352 33.3989C14.2242 32.2441 12.8009 30.5296 11.8992 28.5908C10.998 26.653 10.6454 24.5568 11.4497 22.5671L10.3372 22.1173ZM26.2866 37.404C24.2971 38.2083 22.2009 37.8558 20.2633 36.9547C18.3246 36.0531 16.6101 34.6299 15.4553 33.419L14.5869 34.2472C15.8116 35.5314 17.6445 37.0603 19.7573 38.0428C21.871 39.0257 24.3303 39.4892 26.7364 38.5165L26.2866 37.404ZM27.5726 36.3531C27.2595 36.929 26.6587 37.2868 26.3343 37.387L26.6887 38.5335C27.2446 38.3617 28.1335 37.8337 28.6269 36.9263L27.5726 36.3531ZM25.0232 32.3691C27.7888 34.2795 27.6995 36.0191 27.5416 36.4196L28.658 36.8598C29.0939 35.7541 28.7417 33.4793 25.7052 31.3818L25.0232 32.3691ZM23.809 32.2879C24.1965 32.1292 24.6187 32.1725 25.0949 32.4116L25.6335 31.3393C24.9487 30.9954 24.1547 30.8496 23.3542 31.1774L23.809 32.2879ZM23.3118 32.9364C23.4019 32.6699 23.5194 32.5079 23.6105 32.4153C23.7114 32.3129 23.7704 32.3036 23.731 32.3138L23.4322 31.1515C23.0167 31.2584 22.4621 31.7028 22.175 32.5522L23.3118 32.9364ZM22.1372 33.7223C22.6823 33.6929 23.0594 33.3521 23.2426 33.0771L22.2442 32.4115C22.228 32.4357 22.199 32.4674 22.1632 32.4912C22.13 32.5131 22.1004 32.5225 22.0726 32.524L22.1372 33.7223ZM20.8604 33.1577C20.969 33.2668 21.1465 33.4172 21.3528 33.5351C21.5294 33.6361 21.8736 33.7995 22.2505 33.7052L21.9593 32.5411C22.0195 32.526 22.0524 32.5384 22.0379 32.5345C22.025 32.531 21.9946 32.5198 21.9484 32.4933C21.8537 32.4392 21.7601 32.3606 21.7111 32.3113L20.8604 33.1577ZM19.9678 32.265L20.8615 33.1588L21.71 32.3102L20.8163 31.4165L19.9678 32.265ZM17.5301 29.8274L19.9678 32.265L20.8163 31.4165L18.3786 28.9789L17.5301 29.8274ZM18.3786 29.8274L18.3786 29.8274L17.5301 28.9789L17.5301 28.9789L18.3786 29.8274Z" fill="#063959"/>
<path d="M22.8883 32.9434C23.9856 33.443 26.3106 35.0556 26.8323 37.5084" stroke="#063959" stroke-width="1.2" stroke-linecap="round" stroke-linejoin="round"/>
<rect x="16" y="4" width="9" height="1.2" rx="0.6" fill="white"/>
<circle cx="20" cy="54" r="2" fill="white"/>
</svg>
