<svg width="58" height="51" viewBox="0 0 58 51" fill="none" xmlns="http://www.w3.org/2000/svg">
<path d="M37.8494 20.3027C40.6485 21.5435 45.5542 25.1505 42.7839 29.6521" stroke="white"/>
<rect x="0.6" y="1.03457" width="49.1764" height="41.0583" rx="1.4" fill="white" stroke="#043A57" stroke-width="1.2"/>
<path d="M0.6 2.43457C0.6 1.66137 1.2268 1.03457 2 1.03457H48.3764C49.1496 1.03457 49.7764 1.66137 49.7764 2.43457V8.36182H0.6V2.43457Z" fill="#999FED" stroke="#043A57" stroke-width="1.2"/>
<ellipse cx="36.5707" cy="5.03306" rx="1.3135" ry="1.41758" fill="white"/>
<ellipse cx="40.8001" cy="5.03306" rx="1.3135" ry="1.41758" fill="white"/>
<ellipse cx="45.0293" cy="5.03306" rx="1.3135" ry="1.41758" fill="white"/>
<rect x="6.6" y="18.6" width="34.8" height="7.8" rx="1.4" fill="white" stroke="#043A57" stroke-width="1.2"/>
<rect x="6" y="14.2598" width="18.8496" height="1.2" rx="0.6" fill="#969FC0"/>
<rect x="6.33862" y="29.54" width="25.7874" height="1.2" rx="0.6" fill="#969FC0"/>
<rect x="6.33862" y="33.28" width="15.0359" height="1.2" rx="0.6" fill="#969FC0"/>
<rect x="40.8541" y="36.3992" width="3.56059" height="5.56349" transform="rotate(-45 40.8541 36.3992)" fill="#D9D9D9" stroke="#043A57" stroke-width="1.2"/>
<path d="M48.1267 27.9573C48.1267 34.5847 42.7541 39.9573 36.1267 39.9573C29.4993 39.9573 24.1267 34.5847 24.1267 27.9573C24.1267 21.3299 29.4993 15.9573 36.1267 15.9573C42.7541 15.9573 48.1267 21.3299 48.1267 27.9573Z" fill="#CCEDFF"/>
<path d="M44.598 41.4697C44.0513 40.923 44.0513 40.0365 44.598 39.4898L46.4619 37.6259C47.0086 37.0792 47.895 37.0792 48.4418 37.6259L54.2444 43.4285C55.3058 44.4899 55.3058 46.2109 54.2444 47.2723C53.183 48.3337 51.462 48.3337 50.4006 47.2723L44.598 41.4697Z" fill="#B4BCD9" stroke="#043A57" stroke-width="1.2"/>
<circle cx="36.1267" cy="27.9573" r="11.45" stroke="#043A57" stroke-width="1.1"/>
<rect x="9.3009" y="20" width="1" height="5" rx="0.5" fill="#043A57"/>
<circle cx="36.1267" cy="27.9573" r="7.95728" fill="white"/>
</svg>
