<svg width="23" height="22" viewBox="0 0 23 22" fill="none" xmlns="http://www.w3.org/2000/svg">
<path d="M1 4C1 2.34315 2.34315 1 4 1H18C19.6569 1 21 2.34315 21 4V18C21 19.6569 19.6569 21 18 21H4C2.34315 21 1 19.6569 1 18V4Z" stroke="#252525" stroke-width="2"/>
<path d="M1.5 17L6.82021 12.1231C7.20422 11.7711 7.79415 11.7729 8.17605 12.1272L9.39197 13.2552C9.77676 13.6122 10.3721 13.6109 10.7553 13.2523L14.6052 9.65015C14.9944 9.28598 15.6008 9.29108 15.9838 9.66175L21.5 15" stroke="#252525" stroke-width="1.5" stroke-linecap="square"/>
<circle cx="7" cy="6" r="2" stroke="#252525" stroke-width="1.2"/>
</svg>
