<svg width="22" height="23" viewBox="0 0 22 23" fill="none" xmlns="http://www.w3.org/2000/svg">
<path d="M10.5057 8V2.18182H11.7358V4.58239H14.233V2.18182H15.4602V8H14.233V5.59659H11.7358V8H10.5057ZM18.1369 8H16.0744V2.18182H18.154C18.7392 2.18182 19.243 2.2983 19.6653 2.53125C20.0877 2.76231 20.4125 3.0947 20.6398 3.52841C20.8689 3.96212 20.9835 4.48106 20.9835 5.08523C20.9835 5.69129 20.8689 6.21212 20.6398 6.64773C20.4125 7.08333 20.0858 7.41761 19.6597 7.65057C19.2354 7.88352 18.7278 8 18.1369 8ZM17.3045 6.94602H18.0858C18.4494 6.94602 18.7553 6.88163 19.0034 6.75284C19.2534 6.62216 19.4409 6.42045 19.5659 6.14773C19.6928 5.87311 19.7562 5.51894 19.7562 5.08523C19.7562 4.6553 19.6928 4.30398 19.5659 4.03125C19.4409 3.75852 19.2544 3.55777 19.0062 3.42898C18.7581 3.30019 18.4523 3.2358 18.0886 3.2358H17.3045V6.94602Z" fill="#363636"/>
<path d="M18.96 14.6416L15.08 12.9816C14.24 12.6116 13.24 12.8616 12.66 13.5716L11.58 14.8916C9.81 13.8716 8.33 12.3916 7.31 10.6216L8.63 9.54158C9.34 8.96158 9.58 7.97158 9.19 7.13158L7.56 3.24158C7.17 2.33158 6.17 1.83158 5.21 2.05158L1.6 2.88158C0.66 3.10158 0 3.92158 0 4.89158C0 14.4416 7.76 22.2016 17.31 22.2016C18.28 22.2016 19.11 21.5416 19.32 20.6016L20.15 16.9916C20.38 16.0216 19.87 15.0216 18.95 14.6316L18.96 14.6416ZM18.31 16.5716L17.48 20.1816C17.46 20.2616 17.4 20.3116 17.31 20.3116C8.81 20.3216 1.86 13.4016 1.86 4.90158C1.86 4.82158 1.91 4.75158 1.99 4.73158L5.63 3.90158C5.63 3.90158 5.66 3.90158 5.67 3.90158C5.74 3.90158 5.8 3.94158 5.83 4.00158L7.49 7.88158C7.52 7.95158 7.5 8.03158 7.44 8.08158L5.51 9.66158C5.17 9.94158 5.06 10.4216 5.26 10.8116C6.56 13.4616 8.74 15.6516 11.4 16.9516C11.79 17.1416 12.27 17.0416 12.55 16.7016L14.13 14.7716C14.17 14.7116 14.26 14.6916 14.32 14.7316L18.2 16.3916C18.28 16.4216 18.32 16.5116 18.3 16.5916L18.31 16.5716Z" fill="#353535"/>
</svg>
