<svg width="12" height="15" viewBox="0 0 12 15" fill="none" xmlns="http://www.w3.org/2000/svg">
<path d="M11.4156 3.6709L8.0875 0.550781C7.70937 0.19752 7.20313 0 6.67188 0H2C0.895313 0 0 0.839355 0 1.875L0.000203125 13.125C0.000203125 14.1606 0.895516 15 2.0002 15H10C11.1047 15 12 14.1606 12 13.125V4.99512C12 4.49707 11.7906 4.02246 11.4156 3.6709ZM7 0.998438C7.13991 1.04432 7.27081 1.11111 7.37875 1.21228L10.7069 4.33239C10.8156 4.43262 10.8875 4.55566 10.9344 4.6875H7.5C7.225 4.6875 7 4.47656 7 4.21875V0.998438ZM11 13.125C11 13.6418 10.5513 14.0625 10 14.0625H2C1.44875 14.0625 1 13.6418 1 13.125V1.875C1 1.3582 1.44875 0.9375 2 0.9375H6V4.21875C6 4.99512 6.67188 5.625 7.5 5.625H11V13.125ZM6.5 7.03125C6.5 6.77344 6.275 6.5625 6 6.5625C5.725 6.5625 5.5 6.77344 5.5 7.03125V10.5879L3.85313 9.04395C3.75625 8.95312 3.62813 8.90625 3.5 8.90625C3.37188 8.90625 3.24375 8.95312 3.14688 9.04395C2.95156 9.22705 2.95156 9.52383 3.14688 9.70664L5.64688 12.0504C5.84219 12.2335 6.15875 12.2335 6.35375 12.0504L8.85375 9.70664C9.04906 9.52354 9.04906 9.22676 8.85375 9.04395C8.65844 8.86113 8.34188 8.86084 8.14688 9.04395L6.5 10.5879V7.03125Z" fill="#333333"/>
</svg>
