<?xml version="1.0" encoding="utf-8"?>
<!-- Generator: Adobe Illustrator 27.0.1, SVG Export Plug-In . SVG Version: 6.00 Build 0)  -->
<svg version="1.1" id="레이어_1" xmlns="http://www.w3.org/2000/svg" xmlns:xlink="http://www.w3.org/1999/xlink" x="0px"
	 y="0px" viewBox="0 0 40 40" style="enable-background:new 0 0 40 40;" xml:space="preserve">
<style type="text/css">
	.st0{fill:#818181;}
</style>
<g>
	<path class="st0" d="M20.2,4c-8.8,0-16,7.2-16,16s7.2,16,16,16s16-7.2,16-16S29.1,4,20.2,4z M20.2,31.3c-1.2,0-2-0.8-2-2
		c0-1.2,0.8-2,2-2c1.1,0,2,0.8,2,2C22.2,30.4,21.3,31.3,20.2,31.3z M22.8,21c-1,0.4-1,1.4-1,2.4c0,1-0.8,1.4-1.6,1.4
		c-0.8,0-1.6-0.4-1.6-1.4c0-2,0-3.9,2.5-5.1c1.3-0.6,2.2-1.9,2.2-3.3c0-1.7-1.1-3.1-3.4-3.1c-1.3,0-2.2,0.7-3.4,1.8
		c-0.3,0.2-0.6,0.4-1.1,0.4c-0.7,0-1.6-0.8-1.6-1.7c0-0.6,0.5-1.1,0.9-1.6c1.4-1.3,3.2-2.1,5.2-2.1c4.1,0,6.7,2.7,6.7,6.4
		C26.6,17.8,25,20,22.8,21z"/>
</g>
</svg>
